
<svg xmlns="http://www.w3.org/2000/svg" version="1.1" xmlns:xlink="http://www.w3.org/1999/xlink" preserveAspectRatio="none" x="0px" y="0px" width="400px" height="400px" viewBox="0 0 400 400">
<defs>
<g id="Layer0_0_MEMBER_0_FILL">
<path fill="rgba(255,255,255,0.1)" stroke="none" d="
M 96.5 33.3
Q 92.85 30.2 90.25 28.3 82.45 22.7 74.9 21.45 70.5 20.9 63.1 27.9 56 34.7 48.2 46.45 40.15 58.6 33.95 72.3 27.2 87.2 24.15 100.6 23.25 104.6 21.1 113.3 19.35 121.2 18.95 127.05 18.85 128.45 18.35 132.4 18.1 136 18.95 137.5 20.7 140.5 29.8 141.8 30.85 141.95 37.2 142.65 41.45 143.1 43.3 143.6 52.5 146 62.1 151.95 64.9 153.65 70.2 157.25 75.55 160.9 78.3 162.6 79.3 162.1 79.6 161.9 80.2 161.5 80.55 160.8 81.15 158.65 78 154.8 77 153.55 73.3 149.95 68.95 145.6 62.8 141.9 57.75 138.85 50.55 135.7 49.1 135.05 46.4 134.25 42.1 133 41.75 132.9 36.1 131.1 34.3 128.65 32.6 126.3 34.45 115.3 35.7 107.8 37.45 101.5 41.5 87.05 48 74.15 53.95 62.4 63.2 49.5 65.7 45.95 69 43.3 72.9 40.15 76.7 39.3 79.25 38.75 81.65 39.9 82.5 40.35 83.5 41.05 84.05 41.45 85.05 42.25 91.05 46.65 95.55 50.9 102.7 57.7 103.1 61.7 103.25 63.3 98.6 71.2 97.4 73.25 95.05 77.15 93.2 80.25 92.7 81.4 88 92.2 86.15 105.1 83.95 119.9 86.4 132.95 90.8 156.3 104 173.45 105.2 175 112.2 183.7 117.2 189.95 120.25 194.25 121.25 195.7 123.6 198.75 125.55 201.6 126.1 204 126.8 206.9 124.3 212.35 123.35 214.4 120.45 219.4 115.8 227.45 112.95 231.85 108.8 238.3 104.7 243.35 102.45 246.1 97.2 251.85 94.6 254.7 93.85 256.7 94.65 257.8 94.65 257.85 95.05 258.35 95.65 258.75 99.75 258.05 111.05 246.7 115.3 242.45 119.4 237.8 123.15 233.6 124.75 231.35 128.7 225.95 128.9 225.65 131.45 222.35 133.35 220.95 136.95 221.25 141.05 231.5 142.4 234.95 143.95 239.8 144.75 242.35 145.85 246.1 149.7 258.35 152.65 280.45 156 305.85 157 336.8
L 157.25 374.1
Q 158.1 376.25 160.5 377.7 163.3 379.4 166.05 378.4 168.35 377.6 169.5 375.1 170.45 373 170.75 369.4 170.9 367.05 170.8 362.5 170.7 357.4 170.75 355.55 172.2 315.25 168.65 285.05 167.45 274.8 165.6 265.35 163.7 256.35 163.1 253.55 159 233.8 152.2 218.95 149.4 212.85 145.4 205.85 143.2 202 137.6 192.9 134.2 187.3 128.45 180.15 121.8 172.1 118.55 168 112.85 160.85 109.4 155.05 105 147.6 102.65 139.95 98.8 127.4 99.85 112.75 100.85 98.55 106.05 87.7 106.3 87.15 107.35 84.55 108.25 82.4 108.9 81.15 111.05 77.3 113.95 76.85 116.75 76.05 121.3 84.2 123.3 87.85 126.55 95.4 133.15 110.7 136.05 124.75 140 143.65 137.15 159.45 135.95 166.15 135.7 167.85 135 172.7 135.15 176.1 135.5 185 141.9 188.15 145.9 188 147.4 183.8 147.9 182.25 148.35 179.5 148.8 176.25 149.1 174.6 151.4 162.05 151.85 149.05 152.4 133.6 150 122.8 137.8 67 102.2 38.15 101.5 37.6 96.5 33.3
M 220.5 41.55
Q 218.05 40.25 217.25 39.75 207.4 33.9 196.05 31 183.65 27.9 168.95 28.2
L 153.85 30.45
Q 139.4 34.15 127.9 41.35 122.85 44.5 121.2 47.75 118.8 52.3 123.85 56.05 126 57.65 129.4 56.85 131.8 56.3 134.45 54.7 141.55 50.35 148.9 47.55 156.75 44.55 166.05 42.9 177 40.95 189.25 44 198.3 46.2 207.75 51.05
L 216.8 56.5
Q 220.3 57.95 223.35 56.25 226 54.8 227.15 51.75 228.7 47.75 224.35 44.1 222.85 42.9 220.5 41.55
M 329.1 137.5
Q 329.95 136 329.7 132.4 329.2 128.45 329.1 127.05 328.7 121.2 326.95 113.3 324.8 104.6 323.9 100.6 320.9 87.2 314.1 72.3 307.9 58.6 299.85 46.45 292.1 34.7 284.95 27.9 277.55 20.9 273.15 21.45 265.6 22.7 257.8 28.3 255.2 30.2 251.55 33.3 246.55 37.6 245.85 38.15 210.3 66.95 198.05 122.8 195.65 133.6 196.2 149.05 196.65 162.05 198.95 174.6 199.25 176.25 199.7 179.5 200.15 182.25 200.7 183.8 202.15 188 206.15 188.15 212.55 185 212.9 176.1 213.05 172.7 212.35 167.85 212.1 166.2 210.9 159.45 208.05 143.65 212 124.75 214.9 110.75 221.5 95.4 224.75 87.85 226.75 84.2 231.3 76.05 234.15 76.85 237.05 77.3 239.15 81.15 239.8 82.4 240.7 84.55 241.75 87.1 242.05 87.7 247.2 98.55 248.2 112.75 249.25 127.4 245.4 139.95 243.1 147.6 238.65 155.05 235.2 160.85 229.55 168 222.9 176.05 219.6 180.15 213.85 187.3 210.45 192.9 204.85 202 202.65 205.85 198.65 212.85 195.85 218.95 189.05 233.8 184.95 253.55 184.35 256.35 182.45 265.35 180.6 274.8 179.4 285.05 175.85 315.25 177.3 355.55 177.35 357.4 177.25 362.5 177.15 367.05 177.3 369.4 177.6 373 178.55 375.1 179.7 377.6 182.05 378.4 184.75 379.4 187.55 377.7 189.95 376.25 190.8 374.1
L 191.05 336.8
Q 192.05 305.85 195.45 280.45 198.35 258.35 202.2 246.1 203.3 242.35 204.15 239.8 205.65 234.95 207 231.5 211.1 221.25 214.75 220.95 216.6 222.35 219.15 225.65 219.3 225.85 223.3 231.35 224.9 233.6 228.65 237.8 232.75 242.45 237 246.7 248.3 258.05 252.4 258.75 253 258.35 253.4 257.85 253.45 257.8 254.2 256.7 253.45 254.7 250.85 251.85 245.6 246.1 243.4 243.35 239.25 238.3 235.1 231.85 232.2 227.35 227.6 219.4 224.75 214.5 223.8 212.35 221.3 206.9 221.95 204 222.5 201.6 224.45 198.75 225.55 197.15 227.8 194.25 230.9 189.95 235.85 183.7 243 174.85 244.05 173.45 257.25 156.35 261.65 132.95 264.1 119.9 261.95 105.1 260.05 92.2 255.35 81.4 254.85 80.25 253 77.15 250.65 73.25 249.45 71.2 244.8 63.3 244.95 61.7 245.35 57.7 252.5 50.9 257 46.65 263 42.25 263.5 41.9 264.55 41.05 265.55 40.35 266.4 39.9 268.8 38.75 271.35 39.3 275.15 40.15 279.1 43.3 282.35 45.95 284.9 49.5 294.15 62.4 300.05 74.15 306.55 87.05 310.6 101.5 312.35 107.8 313.65 115.3 315.45 126.3 313.75 128.65 311.95 131.1 306.35 132.9 299.95 134.6 297.5 135.7 290.3 138.85 285.25 141.9 279.1 145.6 274.75 149.95 271 153.65 270.05 154.8 266.9 158.65 267.5 160.8 267.85 161.5 268.45 161.9 268.75 162.1 269.75 162.6 272.5 160.9 277.9 157.25 283.15 153.65 285.95 151.95 295.55 146 304.75 143.6 306.65 143.1 310.85 142.65 317.2 141.95 318.25 141.8 327.35 140.5 329.1 137.5 Z"/>
</g>
</defs>

<g transform="matrix( 1, 0, 0, 1, 26,-0.05) ">
<use xlink:href="#Layer0_0_MEMBER_0_FILL"/>
</g>
</svg>
