
<svg xmlns="http://www.w3.org/2000/svg" version="1.1" xmlns:xlink="http://www.w3.org/1999/xlink" preserveAspectRatio="none" x="0px" y="0px" width="200px" height="200px" viewBox="0 0 200 200">
<defs>
<g id="Layer0_0_FILL">
<path fill="rgba(255,255,255,0.05)" stroke="none" d="
M 43.9 33.15
Q 44 32.9 44.55 31.6 45 30.5 45.3 29.9 46.4 27.95 47.85 27.75 49.25 27.35 51.5 31.4 52.5 33.25 54.15 37 57.45 44.65 58.9 51.7 60.85 61.15 59.45 69.05 58.85 72.4 58.7 73.25 58.35 75.65 58.45 77.35 58.6 81.8 61.8 83.4 63.8 83.3 64.55 81.2 64.8 80.45 65.05 79.05 65.25 77.45 65.4 76.6 66.55 70.35 66.8 63.85 67.05 56.1 65.85 50.7 59.75 22.8 41.95 8.4 41.6 8.1 39.1 5.95 37.3 4.4 36 3.45 32.1 0.65 28.3 0.05 26.1 -0.25 22.4 3.25 18.85 6.65 14.95 12.55 10.95 18.6 7.85 25.45 4.45 32.9 2.95 39.6 2.5 41.6 1.4 45.95 0.55 49.9 0.35 52.85 0.3 53.55 0.05 55.5 -0.1 57.3 0.35 58.05 1.2 59.55 5.75 60.2 6.3 60.3 9.45 60.65 11.6 60.85 12.5 61.1 17.1 62.3 21.9 65.3 23.3 66.15 25.95 67.95 28.65 69.75 30 70.6 30.5 70.35 30.65 70.25 30.95 70.05 31.15 69.7 31.45 68.65 29.85 66.7 29.35 66.1 27.5 64.3 25.35 62.1 22.25 60.25 19.75 58.75 16.15 57.15 15.4 56.85 14.05 56.45 11.9 55.8 11.75 55.75 8.9 54.85 8 53.65 7.15 52.45 8.1 46.95 8.7 43.2 9.6 40.05 11.6 32.85 14.85 26.4 17.85 20.5 22.45 14.05 23.7 12.3 25.35 10.95 27.3 9.4 29.2 8.95 30.5 8.7 31.7 9.25 32.1 9.5 32.6 9.85 32.9 10.05 33.4 10.45 36.4 12.65 38.65 14.75 42.2 18.15 42.4 20.15 42.5 20.95 40.15 24.9 39.55 25.95 38.4 27.9 37.45 29.45 37.2 30 34.85 35.4 33.95 41.85 32.85 49.25 34.05 55.8 36.25 67.45 42.85 76.05 43.45 76.8 46.95 81.15 49.45 84.3 51 86.45 51.5 87.15 52.65 88.7 53.65 90.1 53.9 91.3 54.25 92.75 53 95.5 52.55 96.5 51.1 99 48.75 103.05 47.35 105.25 45.25 108.45 43.2 111 42.1 112.35 39.45 115.25 38.15 116.65 37.8 117.65 38.2 118.2 38.2 118.25 38.4 118.5 38.7 118.7 40.75 118.35 46.4 112.65 48.5 110.55 50.55 108.2 52.45 106.1 53.25 105 55.2 102.3 55.3 102.15 56.6 100.5 57.55 99.8 59.35 99.95 61.4 105.05 62.05 106.8 62.85 109.2 63.25 110.5 63.8 112.35 65.7 118.5 67.2 129.55 68.85 142.25 69.35 157.7
L 69.5 176.35
Q 69.9 177.45 71.1 178.15 72.5 179 73.9 178.5 75.05 178.1 75.6 176.85 76.1 175.8 76.25 174 76.3 172.85 76.25 170.55 76.2 168 76.25 167.1 76.95 146.95 75.2 131.85 74.6 126.7 73.65 122 72.7 117.5 72.4 116.1 70.35 106.2 66.95 98.8 65.55 95.75 63.55 92.25 62.45 90.3 59.65 85.75 57.95 82.95 55.1 79.4 51.75 75.35 50.15 73.3 47.3 69.75 45.55 66.85 43.35 63.1 42.2 59.3 40.25 53 40.8 45.7 41.3 38.6 43.9 33.15
M 104.45 15.2
Q 105.2 13.2 103.05 11.35 102.3 10.75 101.1 10.1 99.9 9.45 99.5 9.2 94.55 6.25 88.9 4.8 82.7 3.25 75.35 3.4
L 67.8 4.55
Q 60.55 6.4 54.8 10 52.3 11.55 51.45 13.2 50.25 15.45 52.8 17.35 53.85 18.15 55.55 17.75 56.75 17.45 58.1 16.65 61.65 14.5 65.3 13.1 69.25 11.6 73.9 10.75 79.35 9.8 85.5 11.3 90 12.4 94.75 14.85
L 99.25 17.55
Q 101 18.3 102.55 17.45 103.85 16.7 104.45 15.2
M 140.8 12.55
Q 136.9 6.65 133.35 3.25 129.65 -0.25 127.45 0.05 123.65 0.65 119.75 3.45 118.45 4.4 116.65 5.95 114.15 8.1 113.8 8.4 96 22.8 89.9 50.7 88.7 56.1 88.95 63.85 89.2 70.35 90.35 76.6 90.5 77.45 90.7 79.05 90.95 80.45 91.2 81.2 91.95 83.3 93.95 83.4 97.15 81.8 97.3 77.35 97.4 75.65 97.05 73.25 96.9 72.4 96.3 69.05 94.9 61.15 96.85 51.7 98.3 44.7 101.6 37 103.25 33.25 104.25 31.4 106.5 27.35 107.95 27.75 109.4 27.95 110.45 29.9 110.75 30.5 111.2 31.6 111.75 32.85 111.9 33.15 114.45 38.6 114.95 45.7 115.5 53 113.55 59.3 112.4 63.1 110.2 66.85 108.45 69.75 105.65 73.3 102.3 77.35 100.65 79.4 97.8 82.95 96.1 85.75 93.3 90.3 92.2 92.25 90.2 95.75 88.8 98.8 85.4 106.2 83.35 116.1 83.05 117.5 82.1 122 81.15 126.7 80.55 131.85 78.8 146.95 79.5 167.1 79.55 168 79.5 170.55 79.45 172.85 79.5 174 79.65 175.8 80.15 176.85 80.7 178.1 81.9 178.5 83.25 179 84.65 178.15 85.85 177.45 86.25 176.35
L 86.4 157.7
Q 86.9 142.25 88.6 129.55 90.05 118.5 91.95 112.35 92.5 110.5 92.95 109.2 93.7 106.8 94.35 105.05 96.4 99.95 98.25 99.8 99.15 100.5 100.45 102.15 100.5 102.25 102.5 105 103.3 106.1 105.2 108.2 107.25 110.55 109.35 112.65 115 118.35 117.05 118.7 117.35 118.5 117.55 118.25 117.6 118.2 117.95 117.65 117.6 116.65 116.3 115.25 113.65 112.35 112.55 111 110.5 108.45 108.4 105.25 106.95 103 104.65 99 103.25 96.55 102.75 95.5 101.5 92.75 101.85 91.3 102.1 90.1 103.1 88.7 103.65 87.9 104.75 86.45 106.3 84.3 108.8 81.15 112.35 76.75 112.9 76.05 119.5 67.5 121.7 55.8 122.9 49.25 121.85 41.85 120.9 35.4 118.55 30 118.3 29.45 117.35 27.9 116.2 25.95 115.6 24.9 113.25 20.95 113.35 20.15 113.55 18.15 117.1 14.75 119.35 12.65 122.35 10.45 122.6 10.25 123.15 9.85 123.65 9.5 124.05 9.25 125.25 8.7 126.55 8.95 128.45 9.4 130.4 10.95 132.05 12.3 133.3 14.05 137.95 20.5 140.9 26.4 144.15 32.85 146.15 40.05 147.05 43.2 147.7 46.95 148.6 52.45 147.75 53.65 146.85 54.85 144.05 55.75 140.85 56.6 139.6 57.15 136 58.75 133.5 60.25 130.4 62.1 128.25 64.3 126.35 66.15 125.9 66.7 124.3 68.65 124.6 69.7 124.8 70.05 125.1 70.25 125.25 70.35 125.75 70.6 127.1 69.75 129.8 67.95 132.45 66.15 133.85 65.3 138.65 62.3 143.25 61.1 144.2 60.85 146.3 60.65 149.45 60.3 150 60.2 154.55 59.55 155.4 58.05 155.85 57.3 155.7 55.5 155.45 53.55 155.4 52.85 155.2 49.9 154.35 45.95 153.25 41.6 152.8 39.6 151.3 32.9 147.9 25.45 144.8 18.6 140.8 12.55 Z"/>
</g>
</defs>

<g transform="matrix( 1, 0, 0, 1, 22.15,10.65) ">
<use xlink:href="#Layer0_0_FILL"/>
</g>
</svg>
